<svg xmlns="http://www.w3.org/2000/svg" xmlns:xlink="http://www.w3.org/1999/xlink" width="1000" zoomAndPan="magnify" viewBox="0 0 750 374.999991" height="500" preserveAspectRatio="xMidYMid meet" version="1.0"><defs><g/></defs><g fill="#3f3f46" fill-opacity="1"><g transform="translate(-47.502801, 374.164666)"><g><path d="M 240.484375 -373.25 C 242.660156 -373.25 244.742188 -372.519531 246.734375 -371.0625 C 248.734375 -369.613281 250.097656 -367.984375 250.828125 -366.171875 L 326.453125 -176.828125 C 327.179688 -175.015625 327.816406 -172.65625 328.359375 -169.75 C 328.898438 -166.851562 329.171875 -164.316406 329.171875 -162.140625 L 329.171875 -7.625 C 329.171875 -2.539062 326.632812 0 321.5625 0 L 295.984375 0 C 290.910156 0 288.375 -2.539062 288.375 -7.625 L 288.375 -108.28125 L 90.859375 -108.28125 L 90.859375 -7.625 C 90.859375 -2.539062 88.320312 0 83.25 0 L 57.125 0 C 52.050781 0 49.515625 -2.539062 49.515625 -7.625 L 49.515625 -162.140625 C 49.515625 -164.316406 49.785156 -166.851562 50.328125 -169.75 C 50.867188 -172.65625 51.503906 -175.015625 52.234375 -176.828125 L 127.859375 -366.171875 C 128.585938 -367.984375 130.039062 -369.613281 132.21875 -371.0625 C 134.394531 -372.519531 136.390625 -373.25 138.203125 -373.25 Z M 288.375 -149.078125 L 288.375 -162.140625 L 220.359375 -331.890625 L 158.875 -331.890625 L 90.859375 -162.140625 L 90.859375 -149.078125 Z M 288.375 -149.078125 "/></g></g></g><g fill="#3f3f46" fill-opacity="1"><g transform="translate(190.768926, 374.164666)"><g><path d="M 282.390625 -88.140625 L 189.890625 -163.234375 L 96.84375 -88.140625 C 92.851562 -84.878906 90.859375 -80.707031 90.859375 -75.625 L 90.859375 -7.625 C 90.859375 -2.539062 88.320312 0 83.25 0 L 57.125 0 C 55.3125 0 53.585938 -0.722656 51.953125 -2.171875 C 50.328125 -3.628906 49.515625 -5.445312 49.515625 -7.625 L 49.515625 -94.671875 C 49.515625 -96.484375 50.054688 -98.660156 51.140625 -101.203125 C 52.234375 -103.742188 53.6875 -105.554688 55.5 -106.640625 L 153.984375 -186.625 L 55.5 -266.0625 C 51.507812 -269.320312 49.515625 -273.492188 49.515625 -278.578125 L 49.515625 -365.625 C 49.515625 -367.4375 50.328125 -369.160156 51.953125 -370.796875 C 53.585938 -372.429688 55.3125 -373.25 57.125 -373.25 L 83.25 -373.25 C 85.425781 -373.25 87.238281 -372.429688 88.6875 -370.796875 C 90.132812 -369.160156 90.859375 -367.4375 90.859375 -365.625 L 90.859375 -297.078125 C 90.859375 -295.265625 91.398438 -293.085938 92.484375 -290.546875 C 93.578125 -288.003906 95.03125 -286.191406 96.84375 -285.109375 L 189.890625 -210.015625 L 282.390625 -285.109375 C 284.203125 -286.191406 285.648438 -288.003906 286.734375 -290.546875 C 287.828125 -293.085938 288.375 -295.265625 288.375 -297.078125 L 288.375 -365.625 C 288.375 -367.4375 289.097656 -369.160156 290.546875 -370.796875 C 291.992188 -372.429688 293.804688 -373.25 295.984375 -373.25 L 322.109375 -373.25 C 324.285156 -373.25 326.097656 -372.429688 327.546875 -370.796875 C 328.992188 -369.160156 329.71875 -367.4375 329.71875 -365.625 L 329.71875 -278.578125 C 329.71875 -273.492188 327.722656 -269.320312 323.734375 -266.0625 L 225.796875 -186.625 L 323.734375 -106.640625 C 325.546875 -105.554688 326.992188 -103.742188 328.078125 -101.203125 C 329.171875 -98.660156 329.71875 -96.484375 329.71875 -94.671875 L 329.71875 -7.625 C 329.71875 -2.539062 327.179688 0 322.109375 0 L 295.984375 0 C 290.910156 0 288.375 -2.539062 288.375 -7.625 L 288.375 -75.625 C 288.375 -80.707031 286.378906 -84.878906 282.390625 -88.140625 Z M 282.390625 -88.140625 "/></g></g></g><g fill="#3f3f46" fill-opacity="1"><g transform="translate(421.240781, 374.164666)"><g><path d="M 58.21875 -365.625 C 58.21875 -370.707031 60.753906 -373.25 65.828125 -373.25 L 319.390625 -373.25 C 324.460938 -373.25 327 -370.707031 327 -365.625 L 327 -339.515625 C 327 -334.429688 324.460938 -331.890625 319.390625 -331.890625 L 99.03125 -331.890625 L 99.03125 -207.296875 L 300.890625 -207.296875 C 302.703125 -207.296875 304.421875 -206.476562 306.046875 -204.84375 C 307.679688 -203.21875 308.5 -201.5 308.5 -199.6875 L 308.5 -173.5625 C 308.5 -171.382812 307.679688 -169.570312 306.046875 -168.125 C 304.421875 -166.675781 302.703125 -165.953125 300.890625 -165.953125 L 99.03125 -165.953125 L 99.03125 -7.625 C 99.03125 -2.539062 96.488281 0 91.40625 0 L 65.828125 0 C 60.753906 0 58.21875 -2.539062 58.21875 -7.625 Z M 58.21875 -365.625 "/></g></g></g></svg>